<svg xmlns="http://www.w3.org/2000/svg" width="1200" height="520" viewBox="0 0 1200 520">
  <defs>
    <filter id="s" x="-20%" y="-20%" width="140%" height="140%"><feDropShadow dx="0" dy="8" stdDeviation="8" flood-color="#101b2d" flood-opacity="0.1"/></filter>
    <marker id="a" markerWidth="10" markerHeight="10" refX="8" refY="3" orient="auto"><path d="M0,0 L0,6 L9,3 z" fill="#bb7a24"/></marker>
    <style>.t{font-family:Inter,Arial,sans-serif;fill:#101b2d}.m{font-family:Inter,Arial,sans-serif;fill:#5d6673}.b{fill:#fbfaf7;stroke:#d9d2c5;stroke-width:2}.h{font-size:19px;font-weight:800}.p{font-size:13px}.arrow{stroke:#bb7a24;stroke-width:3;marker-end:url(#a)}</style>
  </defs>
  <rect width="1200" height="520" fill="#f3efe6"/>
  <text x="55" y="58" class="t" font-size="30" font-weight="900">FlightRisk v0.8.0 · product and ML architecture</text>
  <text x="55" y="86" class="m" font-size="15">Schedule inputs → leakage-safe features → serialized pipeline → decision surfaces and monitoring</text>
  <rect x="55" y="135" width="190" height="115" rx="12" class="b" filter="url(#s)"/>
  <text x="78" y="174" class="t h">BTS data</text><text x="78" y="202" class="m p">normalize · clean</text><text x="78" y="224" class="m p">complete-date split</text>
  <line x1="248" y1="192" x2="300" y2="192" class="arrow"/>
  <rect x="307" y="135" width="220" height="115" rx="12" class="b" filter="url(#s)"/>
  <text x="330" y="174" class="t h">Feature layer</text><text x="330" y="202" class="m p">schedule features</text><text x="330" y="224" class="m p">historical cohorts</text>
  <line x1="530" y1="192" x2="582" y2="192" class="arrow"/>
  <rect x="589" y="135" width="220" height="115" rx="12" class="b" filter="url(#s)"/>
  <text x="612" y="174" class="t h">Model artifact</text><text x="612" y="202" class="m p">sklearn pipeline</text><text x="612" y="224" class="m p">metadata + threshold</text>
  <line x1="812" y1="192" x2="864" y2="192" class="arrow"/>
  <rect x="871" y="135" width="270" height="115" rx="12" class="b" filter="url(#s)"/>
  <text x="894" y="174" class="t h">Prediction service</text><text x="894" y="202" class="m p">single + vectorized batch</text><text x="894" y="224" class="m p">cohort context</text>
  <rect x="150" y="330" width="250" height="120" rx="12" fill="#17304f" filter="url(#s)"/>
  <text x="175" y="370" font-family="Inter,Arial,sans-serif" fill="#fbfaf7" font-size="19" font-weight="800">Streamlit product UI</text><text x="175" y="399" font-family="Inter,Arial,sans-serif" fill="#c9d2dc" font-size="13">analyze · rank · validate</text><text x="175" y="421" font-family="Inter,Arial,sans-serif" fill="#c9d2dc" font-size="13">model &amp; operations</text>
  <rect x="475" y="330" width="250" height="120" rx="12" class="b" filter="url(#s)"/>
  <text x="500" y="370" class="t h">FastAPI</text><text x="500" y="399" class="m p">typed endpoints</text><text x="500" y="421" class="m p">OpenAPI integration</text>
  <rect x="800" y="330" width="250" height="120" rx="12" class="b" filter="url(#s)"/>
  <text x="825" y="370" class="t h">Monitoring</text><text x="825" y="399" class="m p">prediction log</text><text x="825" y="421" class="m p">PSI drift summary</text>
  <line x1="1005" y1="253" x2="1005" y2="316" class="arrow"/>
  <line x1="1005" y1="286" x2="600" y2="316" class="arrow"/>
  <line x1="1005" y1="286" x2="275" y2="316" class="arrow"/>
</svg>
