<svg xmlns="http://www.w3.org/2000/svg" width="1440" height="860" viewBox="0 0 1440 860">
  <defs>
    <filter id="shadow" x="-20%" y="-20%" width="140%" height="140%">
      <feDropShadow dx="0" dy="14" stdDeviation="18" flood-color="#101b2d" flood-opacity="0.12"/>
    </filter>
    <style>
      .sans{font-family:Inter,Arial,sans-serif}.ink{fill:#101b2d}.muted{fill:#5d6673}.navy{fill:#17304f}.amber{fill:#bb7a24}.white{fill:#fbfaf7}
      .small{font-size:15px}.tiny{font-size:12px}.label{font-size:12px;font-weight:800;letter-spacing:1.3px}.title{font-size:48px;font-weight:900;letter-spacing:-2px}.body{font-size:17px}.bold{font-weight:800}
    </style>
  </defs>
  <rect width="1440" height="860" fill="#f3efe6"/>
  <g opacity="0.28" stroke="#d9d2c5" stroke-width="1">
    <path d="M0 42H1440M0 84H1440M0 126H1440M0 168H1440M0 210H1440M0 252H1440M0 294H1440M0 336H1440M0 378H1440M0 420H1440M0 462H1440M0 504H1440M0 546H1440M0 588H1440M0 630H1440M0 672H1440M0 714H1440M0 756H1440M0 798H1440M0 840H1440"/>
    <path d="M42 0V860M84 0V860M126 0V860M168 0V860M210 0V860M252 0V860M294 0V860M336 0V860M378 0V860M420 0V860M462 0V860M504 0V860M546 0V860M588 0V860M630 0V860M672 0V860M714 0V860M756 0V860M798 0V860M840 0V860M882 0V860M924 0V860M966 0V860M1008 0V860M1050 0V860M1092 0V860M1134 0V860M1176 0V860M1218 0V860M1260 0V860M1302 0V860M1344 0V860M1386 0V860"/>
  </g>

  <rect x="70" y="35" width="1300" height="64" rx="12" fill="#fbfaf7" stroke="#d9d2c5"/>
  <rect x="91" y="51" width="34" height="34" rx="8" fill="#17304f"/>
  <text x="108" y="74" text-anchor="middle" class="sans white tiny bold">FR</text>
  <text x="140" y="65" class="sans ink small bold" letter-spacing="2">FLIGHTRISK</text>
  <text x="140" y="84" class="sans muted tiny">Built by Oriol Martínez · ML product engineering · EN / ES</text>
  <rect x="1002" y="54" width="176" height="26" rx="13" fill="#f7f3eb" stroke="#d9d2c5"/>
  <text x="1090" y="72" text-anchor="middle" class="sans muted tiny bold">v1.5.0 · Public Release</text>
  <rect x="1189" y="54" width="160" height="26" rx="13" fill="#e9f0ed" stroke="#c9d8d2"/>
  <text x="1269" y="72" text-anchor="middle" class="sans" font-size="12" font-weight="800" fill="#3f716d">● PUBLIC READY</text>

  <rect x="70" y="120" width="1300" height="306" rx="16" fill="#fbfaf7" stroke="#d9d2c5"/>
  <circle cx="1284" cy="166" r="132" fill="#f1e2c6" opacity="0.55"/>
  <text x="105" y="164" class="sans amber label">PRE-DEPARTURE RISK · SCHEDULE TRIAGE</text>
  <text x="105" y="222" class="sans ink title">Know which flights deserve</text>
  <text x="105" y="278" class="sans navy title">attention before departure.</text>
  <text x="105" y="320" class="sans muted body">Calibrated probabilities, local explanations and temporal evidence</text>
  <text x="105" y="346" class="sans muted body">delivered through a bilingual, exportable review workflow.</text>
  <rect x="105" y="371" width="657" height="35" rx="4" fill="#f1e2c6" opacity="0.72"/>
  <rect x="105" y="371" width="4" height="35" fill="#bb7a24"/>
  <text x="119" y="394" class="sans" font-size="13" fill="#62533b">Schedule-only · no live weather or ATC state · not for operational dispatch</text>

  <rect x="920" y="145" width="398" height="251" rx="13" fill="#17304f"/>
  <text x="946" y="177" class="sans" font-size="12" font-weight="800" letter-spacing="1.3" fill="#c9d2dc">EXAMPLE · AA · 20:30 DEPARTURE</text>
  <text x="946" y="217" class="sans white" font-size="30" font-weight="900">MIA → SFO</text>
  <rect x="1212" y="162" width="80" height="26" rx="5" fill="#bb7a24"/>
  <text x="1252" y="180" text-anchor="middle" class="sans white tiny bold">WATCH</text>
  <text x="946" y="278" class="sans white" font-size="50" font-weight="900">33.8%</text>
  <text x="946" y="303" class="sans" font-size="12" fill="#c9d2dc">calibrated delay probability · sigmoid</text>
  <line x1="946" y1="327" x2="1292" y2="327" stroke="#ffffff" opacity="0.18"/>
  <text x="946" y="352" class="sans white small bold">86.9%</text><text x="946" y="374" class="sans" font-size="11" fill="#c9d2dc">raw model score</text>
  <text x="1051" y="352" class="sans white small bold">29.7%</text><text x="1051" y="374" class="sans" font-size="11" fill="#c9d2dc">route cohort</text>
  <text x="1168" y="352" class="sans white small bold">32</text><text x="1168" y="374" class="sans" font-size="11" fill="#c9d2dc">route support</text>

  <rect x="70" y="450" width="1300" height="55" rx="10" fill="#fbfaf7" stroke="#d9d2c5"/>
  <text x="105" y="484" class="sans muted small bold">Analyze flight</text>
  <text x="315" y="484" class="sans muted small bold">Rank schedule</text>
  <text x="520" y="484" class="sans navy small bold">Validation</text>
  <text x="680" y="484" class="sans muted small bold">Model &amp; operations</text>
  <line x1="500" y1="501" x2="594" y2="501" stroke="#bb7a24" stroke-width="4"/>

  <rect x="70" y="527" width="510" height="273" rx="12" fill="#fbfaf7" stroke="#d9d2c5"/>
  <text x="96" y="563" class="sans ink" font-size="20" font-weight="900">Bilingual risk brief + explanation</text>
  <text x="96" y="589" class="sans muted tiny">Model-native contributions · CSV/PDF export · EN/ES</text>
  <line x1="96" y1="608" x2="554" y2="608" stroke="#d9d2c5"/>
  <text x="96" y="643" class="sans ink small bold">Brier score</text><text x="394" y="643" text-anchor="end" class="sans muted small">0.2266</text><text x="530" y="643" text-anchor="end" class="sans" font-size="17" font-weight="900" fill="#3f716d">0.1409</text>
  <text x="96" y="686" class="sans ink small bold">Expected calibration error</text><text x="394" y="686" text-anchor="end" class="sans muted small">0.2922</text><text x="530" y="686" text-anchor="end" class="sans" font-size="17" font-weight="900" fill="#3f716d">0.0304</text>
  <text x="96" y="729" class="sans ink small bold">Mean prediction</text><text x="394" y="729" text-anchor="end" class="sans muted small">46.3%</text><text x="530" y="729" text-anchor="end" class="sans" font-size="17" font-weight="900" fill="#3f716d">15.5%</text>
  <rect x="96" y="753" width="434" height="20" rx="5" fill="#e9f0ed"/>
  <text x="313" y="768" text-anchor="middle" class="sans" font-size="11" font-weight="800" fill="#3f716d">OBSERVED TEST RATE · 17.1%</text>

  <rect x="605" y="527" width="765" height="273" rx="12" fill="#fbfaf7" stroke="#d9d2c5"/>
  <text x="631" y="563" class="sans ink" font-size="20" font-weight="900">Public-release evidence</text>
  <text x="631" y="589" class="sans muted tiny">Three later-period tests · fold-local selection and calibration</text>
  <line x1="631" y1="608" x2="1344" y2="608" stroke="#d9d2c5"/>

  <text x="631" y="647" class="sans amber label">MODEL STABILITY</text>
  <text x="631" y="686" class="sans ink" font-size="29" font-weight="900">MLP 1/3 · FT 1/3 · Extra Trees 1/3</text>
  <text x="631" y="719" class="sans muted small">Sigmoid 2/3 · Isotonic 1/3</text>

  <rect x="1010" y="634" width="147" height="112" rx="9" fill="#f7f3eb" stroke="#d9d2c5"/>
  <text x="1030" y="658" class="sans muted tiny bold">MEAN PR-AUC</text>
  <text x="1030" y="699" class="sans ink" font-size="31" font-weight="900">0.284</text>
  <text x="1030" y="727" class="sans muted tiny">3 temporal folds</text>

  <rect x="1172" y="634" width="172" height="112" rx="9" fill="#17304f"/>
  <text x="1192" y="658" class="sans" font-size="12" font-weight="800" fill="#c9d2dc">MEAN LIFT@10%</text>
  <text x="1192" y="699" class="sans white" font-size="31" font-weight="900">1.717×</text>
  <text x="1192" y="727" class="sans" font-size="12" fill="#c9d2dc">range 1.577–1.840×</text>

  <rect x="631" y="755" width="344" height="18" rx="4" fill="#f1e2c6"/>
  <rect x="631" y="755" width="280" height="18" rx="4" fill="#bb7a24" opacity="0.82"/>
  <text x="991" y="769" class="sans muted tiny">temporal ranking signal</text>
</svg>
