<svg viewBox="0 0 975 735" role="img" aria-labelledby="title desc" xmlns="http://www.w3.org/2000/svg">
  <title id="title">Historical airport delay pressure</title>
  <desc id="desc">Ten representative U.S. airports. Color encodes the historical share of departures arriving at least fifteen minutes late; size encodes training support.</desc>
  <style>
    .airport text{fill:#f7fbfe;font:800 13px Inter,Segoe UI,sans-serif;letter-spacing:.5px;paint-order:stroke;stroke:#143e59;stroke-width:3px}
    .airport circle{transition:filter .18s ease,transform .18s ease;transform-box:fill-box;transform-origin:center;cursor:help}
    .airport:hover circle,.airport:focus circle{filter:drop-shadow(0 0 9px rgba(255,255,255,.8));transform:scale(1.18)}
    .legend{fill:#dcebf5;font:650 13px Inter,Segoe UI,sans-serif}
  </style>
  <rect width="975" height="735" rx="24" fill="#113e59"/>
  <text x="42" y="48" fill="#73c9ee" font-family="Inter,Segoe UI,sans-serif" font-size="13" font-weight="850" letter-spacing="2">BTS 2024 · TRAINING EVIDENCE</text>
  <text x="42" y="83" fill="#fffaf0" font-family="Inter,Segoe UI,sans-serif" font-size="28" font-weight="850">Historical airport delay pressure</text>
  <text x="42" y="111" fill="#c8deeb" font-family="Inter,Segoe UI,sans-serif" font-size="15">Representative origin airports · hover a point for rate and support</text>
  <text x="933" y="54" text-anchor="end" fill="#fffaf0" font-family="Inter,Segoe UI,sans-serif" font-size="16" font-weight="800">15+ minute arrival delay</text>
  <text x="933" y="82" text-anchor="end" fill="#9ec2d7" font-family="Inter,Segoe UI,sans-serif" font-size="13">color = historical share · size = support</text>
  <g transform="translate(18 120) scale(.965 .88)">
    <path fill="#245b7b" fill-opacity=".9" d="M648,492.4L648,492.4L648,492.4ZM780.1,466.1L787,486.3L794.9,499.6L806.1,513.6L806.6,521.9L820,544.3L822.8,554.1L823.8,574.5L819.7,586.1L806.9,589.7L800.6,577.8L791.9,575.4L785.5,563.3L777.5,556.8L766.5,542.9L771.2,533.2L761.9,533.4L763.6,517.1L758.9,505.1L755,504.9L746.1,498.3L740.3,490.6L732.2,486.7L727.4,487.4L713.7,500.8L707.4,499.8L705.7,493.6L695.8,488.4L680.7,485.8L663.7,490.1L655.9,487.8L653.4,481.7L651.6,490.2L646.5,489.5L636.2,489.7L624.8,495.4L619.2,498.9L623.8,502.3L625.7,497.6L627.3,507.2L622.8,507.8L626.3,513.4L632.4,513.8L634.2,521.8L623.8,515.7L619.8,515.3L612.6,521.1L608.1,515.4L601,522.8L590.3,517.5L584.2,507.9L578.8,505.8L570.6,513.1L553.6,508.2L540.6,510.4L534.8,511.5L522.4,517.4L523.7,509.2L518.4,510.5L519.9,519.4L523.1,518.8L510.3,529.5L492,539.2L480.2,548.4L477.4,546.5L469.4,564.3L467.9,575.9L471.5,591.7L474.4,595.1L466.7,596.6L464.1,593.5L451.8,592.1L440.1,585.1L434.3,583.6L431.4,574.1L427.9,569.9L427.6,559.5L419.9,552.1L419,548L412,540.8L405.1,521.7L390.3,505.7L377.8,504.7L366.4,505.5L361,517.2L356.8,521.6L337.2,510.9L330,503.6L328.1,492L323,479.9L315.8,475.4L306.2,462.7L301.7,459.9L296.3,452.1L264.2,448.2L262.9,458.4L246.8,456.3L208.2,450.5L171.7,429.5L142.3,411.7L145.1,407L99.5,401.7L98.7,387.7L96.5,382.3L86.4,369.8L82.1,369.3L81.7,362.5L76.4,361.8L69.7,356.7L65,349.3L48.8,344.3L46.5,340.5L49.8,328.1L47.3,321.2L41.6,313.3L34.8,296.1L39.7,285.9L31.4,274.3L33.3,260.8L38.5,270.1L35.8,257.2L33.2,259.9L29.4,254.6L27.1,243.1L20.1,229L24,209.2L18.5,197.2L18.9,193.1L26.6,183.8L31.3,172.9L32.6,160L31.1,156.7L33.6,146.5L32.8,139.9L45.4,120.7L57.2,92.5L65,70.6L71,70.2L64.1,65.2L65.9,57.2L70.7,53.9L66.9,51L67.6,34.1L66.5,23.5L69.7,20.2L76.9,27.1L90.2,33L94.6,32.9L96.6,39L92.4,52.4L96.1,51.9L98,41.7L101.7,37.6L100.9,27L102.4,20.9L100,14.4L140.1,25.4L183.6,35.9L198.1,39L232.9,46.1L265.4,51.9L302.8,57.5L340.4,62.1L376.9,65.7L404.4,67.8L444.9,69.8L479.5,70.7L510.8,70.8L510.7,62.2L515.6,64.1L520.2,77.3L530.7,78.8L531.5,81.3L540.3,78.2L563.4,87.3L565.8,90.7L576.7,85.8L578.1,88.9L587.6,88L596.2,90.7L582,97.5L558.9,119.4L560.2,121.1L568,119.6L576.2,115.1L585.3,123.1L593.9,117.3L600.5,115.8L618.6,100.5L624.4,99.7L615.4,111.8L628.3,114.3L633.1,120.8L643.6,121.4L651.8,115.2L670,111L669.8,117.6L676.5,118.3L683.4,114.8L684.4,121.5L694,127.6L681.2,128.8L676.5,126.6L674.2,131L662.9,127.3L660.9,130.3L652.6,131.3L637.9,139.6L632.4,153L629,156.6L628.1,166.1L641.6,147.6L635.5,165.1L635.4,173.6L630.8,195.3L634.1,205.7L634.2,212.4L634,216.8L640.3,229.8L647.2,230.6L651.9,227.6L658.6,215.5L660,204.7L658.9,198L652.4,184.3L651.9,174.9L655.2,168L654.9,159.7L661.1,153.5L663.6,147.8L663.9,155.9L667.8,153.2L667.3,145.5L674.2,141.9L670.5,138.3L675.4,132.7L686.6,137.8L696.7,139.9L701.3,147L702.4,162.5L694.1,177.1L699,180.2L704.6,170.6L709.9,167.7L715.2,172.4L721.5,191.2L720.9,199.8L716.3,199.4L715.1,206.5L708.3,221.7L725.6,227.4L737.5,223.2L748.5,213L756.1,209L767.5,200.3L776.4,192.1L780.3,186.1L774.8,176L783.8,171.7L795.8,170.3L799.8,171.9L809,169.2L819.3,161.1L814.7,150.3L815,146.4L820.5,141.3L832.3,124.4L857.6,117.8L886.1,110.5L886.7,105.2L890.9,102.4L894.3,99.3L900,86.1L898.2,82.6L899.1,67.5L905.9,47.6L912.5,52.3L922.6,45.8L929.7,49.7L938.7,79.9L944.6,79.9L946.1,87L952,88.1L957.1,94.8L952.8,98.6L950.2,105.6L946.8,104.3L943.8,110.3L935.7,117.6L931,110.1L930.2,122.9L918.1,130.9L912.8,138.3L910.2,150.1L909.5,154.8L914.3,158.4L909.5,165.8L917,171.2L921.7,177.7L931,176.8L920,183.3L917.9,179.4L912.8,186.4L910.5,182.8L909.8,182.1L906.7,181.2L907.6,190.7L901.7,193.5L884.7,198.4L874.1,208.3L890.9,204.2L894.7,199.6L899.5,201.8L885.7,213L871.7,219.3L869.2,216.4L868.9,217.2L866.6,221.4L871.4,222.4L873.2,237.3L865.4,257.2L858.6,254.3L849.4,246.3L849.2,245.8L849.7,244.4L849.3,249.3L854.8,258L861.3,262.7L863.7,270.3L862.5,280.5L858.4,288.2L856.6,301.3L852.6,300.7L855.5,283.8L851.6,285.3L847.7,275.6L845.5,279.1L841.4,274.1L846.4,271.3L839,266.3L841.6,251.7L836.8,254L838,262.7L836.2,268.8L843.8,284.2L834.6,281.5L827.1,273.8L824.5,278.6L831.9,282.6L838.2,282.9L845.9,287.3L849.2,305.5L846.3,310.5L854.9,308.3L858.8,315.9L855.9,317.5L859.3,323L847.4,332.7L856,329.6L863.3,329.4L865.7,334.5L859.7,344.3L843,343.4L854.2,347.1L850.5,355.8L859.2,353.5L855.6,361.2L843.8,364.5L834.5,376.7L833.4,384.1L822.8,386.1L816.3,392.2L813.6,403.6L800.6,419L792.1,423.7L793,426.9L786.1,434.6L782.6,442.3L781.3,454.4L778.3,460.2ZM104.2,551.6L104.2,551.6L104.2,551.6ZM99.1,569.9L103.4,565.2L104.7,569.1ZM95.1,582L95.1,582L95.1,582ZM93.3,575.4L99,570.7L104.5,573.3L95.4,579.6ZM93.1,582.8L93.1,582.8L93.1,582.8ZM88.9,587.6L88.9,587.6L88.9,587.6ZM71.8,593.7L71.8,593.7L71.8,593.7ZM71,591.7L71,591.7L71,591.7ZM68.2,593.5L68.2,593.5L68.2,593.5ZM65.8,590.1L65.8,590.1L65.8,590.1ZM67.5,564.2L67.5,564.2L67.5,564.2ZM60.9,591.2L60.9,591.2L60.9,591.2ZM58.3,592.4L58.3,592.4L58.3,592.4ZM66.1,523.9L66.1,523.9L66.1,523.9ZM56,595.9L56,595.9L56,595.9ZM44.6,597L44.6,597L44.6,597ZM42.7,595.5L42.7,595.5L42.7,595.5ZM40.6,595.9L40.6,595.9L40.6,595.9ZM44.2,547.5L49.5,546.7L48.4,552ZM31.3,600.8L37.9,596.5L36.6,600.9ZM50.7,504.5L65.7,499.7L65.2,503.9L74.3,503.7L73.2,497.6L66.5,495.6L66.2,492.3L59.4,484.4L61.5,480.8L67.2,481.3L75.3,471.4L86.7,468.1L89.3,465.1L95.1,468.8L101.4,468.7L122.5,473.6L126,471.7L132.9,474.4L147.3,547.1L154.6,547.3L163.6,554.8L169.4,545.9L180.8,553.8L192.6,565.1L200.1,566.6L202.9,572.6L201.4,577.9L192.8,573.7L188.2,565.4L183.2,563.5L178.3,556.5L171.4,551.2L172.7,556.5L168,559.3L151,551.3L140.6,550L135.3,551.6L125.7,547.4L119.2,547.1L121.1,552.9L113.5,554.3L108.8,560.4L104.8,560.3L106.3,546.2L100.5,556.9L96.2,559.5L99.6,563.5L95.8,569.3L89.9,572.1L76.7,585.8L46.7,594.8L48.6,591.6L56.5,590.1L66.5,584.6L80.9,573.4L83.9,563.2L75.7,566.2L71,560.7L64.7,564.1L65.8,556.7L63.8,551.1L58.4,553.3L52.6,546.7L51.1,538.2L60.7,525.7L64.3,527.9L73,523.2L72.5,514L67.6,516.5L55.2,514.1L55.9,508.7ZM24.9,603L24.9,603L24.9,603ZM28.5,573.3L28.5,573.3L28.5,573.3ZM20.4,602.1L20.4,602.1L20.4,602.1ZM26.8,568.3L26.8,568.3L26.8,568.3ZM16,603L16,603L16,603ZM34.4,517.8L39.4,517.9L44.8,522.4L40.8,524.5ZM7,603L7,603L7,603ZM23.4,539.9L23.4,539.9L23.4,539.9ZM0,602.3L0,602.3L0,602.3ZM-6.2,601.2L-6.2,601.2L-6.2,601.2ZM-10.2,599.4L-10.2,599.4L-10.2,599.4ZM-11,601.2L-11,601.2L-11,601.2ZM-15,601.4L-15,601.4L-15,601.4ZM-18.1,599.6L-18.1,599.6L-18.1,599.6ZM-20.1,597.5L-20.1,597.5L-20.1,597.5ZM-30.2,592.5L-30.2,592.5L-30.2,592.5ZM-35.2,593.3L-35.2,593.3L-35.2,593.3ZM-40.8,588.6L-40.8,588.6L-40.8,588.6ZM-55.8,576.6L-55.8,576.6L-55.8,576.6ZM-57.6,570.9L-57.6,570.9L-57.6,570.9ZM197.4,577.4L197.4,577.4L197.4,577.4ZM196.5,577L196.5,577L196.5,577ZM194.7,574.9L194.7,574.9L194.7,574.9ZM187.6,570L187.6,570L187.6,570ZM187.1,569.1L187.1,569.1L187.1,569.1ZM186.2,576.9L186.2,576.9L186.2,576.9ZM184.9,573.1L186.8,569.5L194.4,575.9L195.7,580.1ZM182.7,574.2L182.7,574.2L182.7,574.2ZM180.3,567.2L185.4,564.3L188.7,566.7ZM174.6,555.9L181.4,562.6L179.6,565.9ZM173.9,564.8L177.2,563.4L180.8,572.7ZM173.5,565.9L173.5,565.9L173.5,565.9ZM169.1,561.4L171.5,557.8L177.1,562.7L173.8,564.8ZM120.8,555.1L120.8,555.1L120.8,555.1ZM120.4,551.4L120.4,551.4L120.4,551.4ZM814.6,594.5L814.6,594.5L814.6,594.5ZM812.7,596L812.7,596L812.7,596ZM807.4,599L807.4,599L807.4,599ZM793.7,604.2L800.5,597.7L805.1,600.1ZM789.6,605.4L789.6,605.4L789.6,605.4ZM786.4,605.5L786.4,605.5L786.4,605.5ZM777.4,558.3L777.4,558.3L777.4,558.3ZM770.3,606.2L770.3,606.2L770.3,606.2ZM720.4,495.2L720.4,495.2L720.4,495.2ZM939.8,114.8L939.8,114.8L939.8,114.8ZM938,116.1L938,116.1L938,116.1ZM936.3,112.2L936.3,112.2L936.3,112.2ZM932.2,116L932.2,116L932.2,116ZM933.5,124.7L933.5,124.7L933.5,124.7ZM931.4,119.2L931.4,119.2L931.4,119.2ZM930.1,116.3L930.1,116.3L930.1,116.3ZM927.7,186.8L927.7,186.8L927.7,186.8ZM918.3,188.3L918.3,188.3L918.3,188.3ZM864.3,329.1L864.3,329.1L864.3,329.1ZM863.3,349.7L863.3,349.7L863.3,349.7ZM77.2,374.3L77.2,374.3L77.2,374.3ZM74.7,384.2L74.7,384.2L74.7,384.2ZM65.2,358.4L65.2,358.4L65.2,358.4ZM58.3,374.3L58.3,374.3L58.3,374.3ZM56.6,355L56.6,355L56.6,355ZM50.3,355.2L50.3,355.2L50.3,355.2ZM46.8,353.4L46.8,353.4L46.8,353.4ZM305.4,584.5L310.3,577.9L309.7,572.5L322.2,578.3L332.1,589.1L328.6,593.3L317.3,598.1L313.8,603.1L309.3,600.5L309.1,593.7ZM291.6,557.9L293.9,555.4L306.5,560.7L305.4,563.9L298.5,565.6ZM291.6,566.7L291.6,566.7L291.6,566.7ZM283.9,558.3L283.9,558.3L283.9,558.3ZM278.6,553.8L279.6,551.2L291.4,552.6L287.8,555ZM258.1,543L264.7,540L271.4,549.4L261.5,549.3ZM226.1,532.6L231,528.2L235.4,528.6L235.8,534.3L230,535.8ZM216.3,536.6L216.3,536.6L216.3,536.6ZM848.9,285.2L849.9,285L848.9,285.2ZM847.3,281.5L847.3,281.5L847.3,281.5ZM677.1,130.8L677.1,130.8L677.1,130.8ZM663.5,133.2L663.5,133.2L663.5,133.2ZM662.4,138.6L662.4,138.6L662.4,138.6ZM660.9,135.6L660.9,135.6L660.9,135.6ZM658.8,142.5L658.8,142.5L658.8,142.5ZM656.6,149.6L656.6,149.6L656.6,149.6ZM655.4,152.7L655.4,152.7L655.4,152.7ZM645.5,139.9L645.5,139.9L645.5,139.9ZM601.4,92.4L610.1,85.8L610.1,88.7ZM644.5,493.1L644.5,493.1L644.5,493.1ZM639.3,492.9L639.3,492.9L639.3,492.9ZM635.2,493.9L635.2,493.9L635.2,493.9ZM631.8,493.6L631.8,493.6L631.8,493.6ZM899.3,195.7L899.3,195.7L899.3,195.7ZM896.7,198L896.7,198L896.7,198ZM815.5,153.8L815.5,153.8L815.5,153.8ZM814.2,153.7L814.2,153.7L814.2,153.7ZM720.6,223L720.6,223L720.6,223ZM718.7,222.3L718.7,222.3L718.7,222.3ZM93.2,50.9L93.2,50.9L93.2,50.9ZM98.7,24.6L98.7,24.6L98.7,24.6ZM98.9,20.3L98.9,20.3L98.9,20.3ZM97.7,23.5L97.7,23.5L97.7,23.5ZM95,31L95,31L95,31ZM95.5,17.9L95.5,17.9L95.5,17.9ZM93.6,19.6L93.6,19.6L93.6,19.6ZM95.2,13L95.2,13L95.2,13ZM91,21.2L98.1,21.8L95.6,26.6ZM91.1,19.1L91.1,19.1L91.1,19.1ZM641.9,146.3L641.9,146.3L641.9,146.3ZM635.6,150.4L635.6,150.4L635.6,150.4ZM584,113.3L584,113.3L584,113.3ZM583.2,116.2L583.2,116.2L583.2,116.2ZM581.2,115.2L581.2,115.2L581.2,115.2ZM579.6,117.2L579.6,117.2L579.6,117.2ZM579.8,114.4L579.8,114.4L579.8,114.4ZM579.1,113L579.1,113L579.1,113ZM579.2,118.5L579.2,118.5L579.2,118.5ZM576,114.1L576,114.1L576,114.1ZM637.5,497.4L637.5,497.4L637.5,497.4ZM628.5,497.9L628.5,497.9L628.5,497.9ZM623.7,510.2L623.7,510.2L623.7,510.2ZM609.5,520.8L609.5,520.8L609.5,520.8ZM606,521.3L606,521.3L606,521.3ZM602.2,522.4L602.2,522.4L602.2,522.4ZM576.5,511.5L576.5,511.5L576.5,511.5ZM908.4,188.4L908.4,188.4L908.4,188.4ZM906.7,196L906.7,196L906.7,196Z"/>
    <path fill="none" stroke="#dff2fb" stroke-opacity=".32" stroke-width="1.3" d="M646.5,489.5L642.2,455L643.7,386.2L641.6,384L689.2,379.7L702.5,427L709.6,439.9L705.9,450.1L708.6,457.1L708.3,464.8L710.8,468.8L660.7,474L666.3,486.4L663.7,490.1M145.1,407L148.8,406.9L148,391.7L152.4,389.1L153.9,380.5L162.8,373.6L159.8,369.6L156.8,356.2L159.9,331.1L166.6,331.5L170,334.9L172.6,331.5L176,313.3L239.3,324.3L264.6,328L246.8,456.3M710.8,468.8L714.2,475L765.8,471.5L769.7,475.6L768.7,466L780.1,466.1M689.2,379.7L712.7,376.8L734.9,373.7L731.7,381.5L741.1,385.4L748.3,396.2L761.9,405.8L765.7,411.8L771.3,414.4L774,422.7L786.1,434.6M651.9,227.6L685.6,223.9L685.8,225.4L692.5,284.3L693.5,291.6L682.6,295L683.6,298.2L677.1,305.1L674.1,312.8L668.6,308.8L666,314.3L660.8,313.4L655.3,318.7L646.7,315L639.4,319.7L638,317.4L646.5,298.5L643.5,287.9L645,283.6L640.3,229.8M393.9,271.9L422.4,273.5L464.8,274.9L509.9,275.2L516.5,277.7L513.5,285.8L522.3,295.2L522.8,343.8L489,344L432.6,342.7L389.7,340.7M910.2,150.1L904.5,145.2L890.9,102.4M909.8,182.1L905.5,176L898.8,178L871.2,184L871,167.6L884.1,164.8L902.9,160.7L909.5,154.8M912.8,186.4L910.5,182.8M560.2,121.1L555.9,122.3L556.4,135.6L551.1,139L547.5,147.3L551.3,149.9L549.3,165.9L563.9,174.9L572.3,182.2L576.3,193.3L549.3,194.4L490.6,195.2L490.8,154.3L484.4,147.3L489.1,139.9L488.6,130.9L485.5,123.3L484.9,102.5L480.5,89.4L481.4,77.7L479.5,70.7M849.7,244.4L850.8,241.4L860.6,230.8L853.7,226.4L849.9,220.8L849.6,213.8L855,204L870.1,209L869.2,216.4M868.9,217.2L866.6,221.4M849.4,246.3L849.2,245.8M712.7,376.8L712.6,371.4L717.3,369.2L721.1,362.5L726.3,361.7L737.8,350.2L747.2,345.2L750.7,345.5L755.5,334L780.3,331.1L812.1,325.5L858.8,315.9M822.8,386.1L798.1,368.4L777.6,371.5L772,364.7L749.4,367L734.9,373.7M489.1,139.9L459.9,139.4L412.5,137.3L371.1,134.3L376.9,65.7M522.8,343.8L523,355.3L526.8,380.5L526.4,420.7L512.4,413.5L499.2,415.2L491.6,419.8L481.1,413.8L476.1,418.5L466.5,412.7L454,408.5L451.7,410.6L438.4,404L429.4,402.6L423.9,398.3L425.8,353.9L371.6,350.8L372.5,339.4M767.5,200.3L768.6,206.4L800.4,200.6L840.9,192.1L847.1,196.5L849.7,202.4L855,204M850.8,241.4L844.9,244.6L816.4,250.5L782.3,256.9L764.5,259.9L761.1,239.2L756.1,209M490.6,195.2L488.2,195.2L490.8,203.9L487.5,211.9L490.6,218.3L476.4,209.5L465.7,211.6L456.8,206.2L403.8,203.9L365.3,201L369.1,155.7L371.1,134.3M526.4,420.7L534.8,422.5L535,434.7L535.5,457.9L545.4,476.2L545.5,484.5L542.3,490.3L543.1,502.1L538.9,507.5L540.6,510.4M296.3,452.1L295.1,447L338.7,451.3L362.9,453.3L366.7,407.5L370.9,350.7L371.6,350.8M365.3,201L361.4,246.5M277.1,237.2L333.1,244L361.4,246.5L395.3,249L393.9,271.9L389.7,340.7L372.5,339.4L315.3,334.3L264.6,328L268.4,299L277.1,237.2L243.5,232.2L247.2,209.6L256,153.9L257.8,142L298.3,148L339.2,153L369.1,155.7M898.8,178L901.7,193.5M874.1,208.3L874.1,201L871.2,184M509.9,275.2L502,261.9L544.8,261.3L570.9,259.6L576.5,264.7L575.5,272.6L578.1,279.5L589.7,289.9L591.3,297.3L601,298.4L597.6,313.2L614.1,326.4L613.8,333.4L621.2,339.9L620.2,349.5L616.9,351.3L615.6,351.5L614.7,351.5L611.9,363.1L600.2,364L605.2,357.3L603.6,352.2L549.9,354.7L523,355.3M782.3,256.9L784.1,268.5L794.3,257.4L800.4,258.3L804.5,253.4L813.9,260.3L812.9,264.9L802.6,259.1L802.9,266L796.6,276.6L794,275L790.3,285.9L783.8,282.9L780,297.5L776,305.1L776.6,309.3L761.3,318.1L750,318.6L747.1,313.2L740.9,311.1L733.8,301.7L733.2,294.8L737.9,293.5L741.4,279.5L744,282.7L746.4,273.1L753.7,269.4L757.8,263.4L760.9,246.6L761.1,239.2M576.5,264.7L581.2,257.8L583.7,247.9L581.6,240.8L593.2,236.1L595.5,223.8L587,215.4L634.2,212.4M639.4,319.7L639,327.3L632.2,329.8L631.5,337.1L624.4,334.1L621.2,339.9M611.9,363.1L612.7,367.3L604.7,377.7L607.1,383.2L602.8,386.7L598.4,393L598.6,400.4L595.3,401.6L591.8,415.1L587.6,420.4L590.7,429.8L589.4,433.1L535,434.7M32.6,160L83.7,174.8L100.5,179.2L83.3,245.5L156.8,356.2M863.7,270.3L852.6,272.5L844.9,244.6M576.3,193.3L579.9,210.5L587,215.4M502,261.9L496.9,234L490.6,218.3M692.5,284.3L698.5,283.2L703.9,289.8L713.9,292.7L720.6,292.4L727,287.9L733.2,294.8M747.1,313.2L735.2,324.6L729,334.2L719.8,338.7L704.2,340.8L672,343.2L644.8,346.1L641.4,349.5L616.9,351.3M615.6,351.5L614.7,351.5M849.9,285L848.9,285.2M862.5,280.5L855.5,283.8M827.1,273.8L827.9,269.9M825.9,267L827.9,269.9L825.9,267L813.9,260.3M708.3,221.7L685.8,225.4M632.4,153L627.3,147L628.2,140.2L622.7,135L590.3,128L585.3,123.1M602.8,386.7L641.6,384M624.8,495.4L617.6,484.9L619.1,477.1L582.6,479.2L584.4,467L595.4,448.2L590.9,444.9L589.4,433.1M256,153.9L252.6,147.6L249.6,151.1L236.7,148.5L234.6,150.9L224.8,149.1L224.1,141.5L219.4,138.5L214.6,118.2L208.1,122.6L205.2,119.7L213.4,96.3L208.9,95.6L200.8,79.7L195.3,74.3L196.8,68.7L193.3,61.5L198.1,39M884.1,164.8L882.3,163.4L880.6,145.8L883.1,133L881.8,127.9L887.9,122.1L886.1,110.5M857.6,117.8L862,134L863.6,148.6L867.1,150.3L871,167.6M71,70.2L77,73.8L80.1,80L79,86.8L86.2,91.5L98.2,90.6L102.8,94.7L112,93.9L138.7,94.8L170.5,102.4L175.7,112.3L157.4,136.6L161.7,143.3L157.9,150.5L148.9,190.7L100.5,179.2M719.8,338.7L755.5,334M176,313.3L197.7,201.1L247.2,209.6M183.6,35.9L170.8,92.4L170.5,102.4M197.7,201.1L148.9,190.7"/>
    <g class="airport" tabindex="0">
      <circle cx="97" cy="49.8" r="10" fill="#f2b84b" stroke="#fff" stroke-width="2.2"><title>SEA — 23.0% delayed 15+ min — 4,003 historical flights</title></circle>
      <text x="109" y="37.8" text-anchor="start">SEA</text>
    </g>
    <g class="airport" tabindex="0">
      <circle cx="34.6" cy="265.1" r="9.4" fill="#f2b84b" stroke="#fff" stroke-width="2.2"><title>SFO — 22.8% delayed 15+ min — 3,075 historical flights</title></circle>
      <text x="46.6" y="253.10000000000002" text-anchor="start">SFO</text>
    </g>
    <g class="airport" tabindex="0">
      <circle cx="83.2" cy="364.8" r="10.5" fill="#a1dcf2" stroke="#fff" stroke-width="2.2"><title>LAX — 20.7% delayed 15+ min — 4,693 historical flights</title></circle>
      <text x="95.2" y="352.8" text-anchor="start">LAX</text>
    </g>
    <g class="airport" tabindex="0">
      <circle cx="348.6" cy="271.6" r="12.2" fill="#ff6b5e" stroke="#fff" stroke-width="2.2"><title>DEN — 26.3% delayed 15+ min — 7,489 historical flights</title></circle>
      <text x="360.6" y="259.6" text-anchor="start">DEN</text>
    </g>
    <g class="airport" tabindex="0">
      <circle cx="478.4" cy="437.7" r="12.2" fill="#ff6b5e" stroke="#fff" stroke-width="2.2"><title>DFW — 30.8% delayed 15+ min — 7,403 historical flights</title></circle>
      <text x="490.4" y="425.7" text-anchor="start">DFW</text>
    </g>
    <g class="airport" tabindex="0">
      <circle cx="633.4" cy="224.2" r="11.8" fill="#ff6b5e" stroke="#fff" stroke-width="2.2"><title>ORD — 26.0% delayed 15+ min — 6,530 historical flights</title></circle>
      <text x="645.4" y="212.2" text-anchor="start">ORD</text>
    </g>
    <g class="airport" tabindex="0">
      <circle cx="714.5" cy="407.8" r="12.6" fill="#f2b84b" stroke="#fff" stroke-width="2.2"><title>ATL — 22.0% delayed 15+ min — 8,150 historical flights</title></circle>
      <text x="726.5" y="395.8" text-anchor="start">ATL</text>
    </g>
    <g class="airport" tabindex="0">
      <circle cx="820.6" cy="572.2" r="9" fill="#ff6b5e" stroke="#fff" stroke-width="2.2"><title>MIA — 32.3% delayed 15+ min — 2,599 historical flights</title></circle>
      <text x="832.6" y="560.2" text-anchor="start">MIA</text>
    </g>
    <g class="airport" tabindex="0">
      <circle cx="873.9" cy="216.5" r="9.2" fill="#f2b84b" stroke="#fff" stroke-width="2.2"><title>JFK — 22.9% delayed 15+ min — 2,891 historical flights</title></circle>
      <text x="861.9" y="204.5" text-anchor="end">JFK</text>
    </g>
    <g class="airport" tabindex="0">
      <circle cx="909.5" cy="166.8" r="9.6" fill="#f2b84b" stroke="#fff" stroke-width="2.2"><title>BOS — 23.1% delayed 15+ min — 3,280 historical flights</title></circle>
      <text x="897.5" y="154.8" text-anchor="end">BOS</text>
    </g>
  </g>
  <g transform="translate(42 690)">
    <text class="legend" x="0" y="0">HISTORICAL DELAY SHARE</text>
    <circle cx="204" cy="-5" r="6" fill="#53c7f0"/><text class="legend" x="218" y="0">&lt;18%</text>
    <circle cx="286" cy="-5" r="6" fill="#a1dcf2"/><text class="legend" x="300" y="0">18–21%</text>
    <circle cx="382" cy="-5" r="6" fill="#f2b84b"/><text class="legend" x="396" y="0">21–24%</text>
    <circle cx="480" cy="-5" r="6" fill="#ff6b5e"/><text class="legend" x="494" y="0">≥24%</text>
    <text class="legend" x="891" y="0" text-anchor="end" fill="#8fb4ca">Historical evidence, not live conditions</text>
  </g>
</svg>

